<svg width="24" height="24" viewBox="0 0 24 24" fill="none" xmlns="http://www.w3.org/2000/svg">
<g clip-path="url(#clip0_1607_6129)">
<path d="M11.9999 5.44062C14.1374 5.44062 14.3905 5.45 15.2311 5.4875C16.0124 5.52187 16.4343 5.65313 16.7155 5.7625C17.0874 5.90625 17.3561 6.08125 17.6343 6.35938C17.9155 6.64062 18.0874 6.90625 18.2311 7.27813C18.3405 7.55938 18.4718 7.98438 18.5061 8.7625C18.5436 9.60625 18.553 9.85938 18.553 11.9938C18.553 14.1313 18.5436 14.3844 18.5061 15.225C18.4718 16.0063 18.3405 16.4281 18.2311 16.7094C18.0874 17.0813 17.9124 17.35 17.6343 17.6281C17.353 17.9094 17.0874 18.0813 16.7155 18.225C16.4343 18.3344 16.0093 18.4656 15.2311 18.5C14.3874 18.5375 14.1343 18.5469 11.9999 18.5469C9.86238 18.5469 9.60925 18.5375 8.76863 18.5C7.98738 18.4656 7.5655 18.3344 7.28425 18.225C6.91238 18.0813 6.64363 17.9063 6.3655 17.6281C6.08425 17.3469 5.91238 17.0813 5.76863 16.7094C5.65925 16.4281 5.528 16.0031 5.49363 15.225C5.45613 14.3813 5.44675 14.1281 5.44675 11.9938C5.44675 9.85625 5.45613 9.60313 5.49363 8.7625C5.528 7.98125 5.65925 7.55938 5.76863 7.27813C5.91238 6.90625 6.08738 6.6375 6.3655 6.35938C6.64675 6.07812 6.91238 5.90625 7.28425 5.7625C7.5655 5.65313 7.9905 5.52187 8.76863 5.4875C9.60925 5.45 9.86238 5.44062 11.9999 5.44062ZM11.9999 4C9.828 4 9.55613 4.00937 8.703 4.04688C7.853 4.08438 7.26863 4.22187 6.76238 4.41875C6.23425 4.625 5.78738 4.89688 5.34363 5.34375C4.89675 5.7875 4.62488 6.23438 4.41863 6.75938C4.22175 7.26875 4.08425 7.85 4.04675 8.7C4.00925 9.55625 3.99988 9.82812 3.99988 12C3.99988 14.1719 4.00925 14.4438 4.04675 15.2969C4.08425 16.1469 4.22175 16.7313 4.41863 17.2375C4.62488 17.7656 4.89675 18.2125 5.34363 18.6562C5.78738 19.1 6.23425 19.375 6.75925 19.5781C7.26863 19.775 7.84988 19.9125 8.69988 19.95C9.553 19.9875 9.82488 19.9969 11.9968 19.9969C14.1686 19.9969 14.4405 19.9875 15.2936 19.95C16.1436 19.9125 16.728 19.775 17.2343 19.5781C17.7593 19.375 18.2061 19.1 18.6499 18.6562C19.0936 18.2125 19.3686 17.7656 19.5718 17.2406C19.7686 16.7313 19.9061 16.15 19.9436 15.3C19.9811 14.4469 19.9905 14.175 19.9905 12.0031C19.9905 9.83125 19.9811 9.55938 19.9436 8.70625C19.9061 7.85625 19.7686 7.27188 19.5718 6.76562C19.3749 6.23438 19.103 5.7875 18.6561 5.34375C18.2124 4.9 17.7655 4.625 17.2405 4.42188C16.7311 4.225 16.1499 4.0875 15.2999 4.05C14.4436 4.00938 14.1718 4 11.9999 4Z" fill="white"/>
<path d="M11.9999 7.89062C9.73113 7.89062 7.8905 9.73125 7.8905 12C7.8905 14.2688 9.73113 16.1094 11.9999 16.1094C14.2686 16.1094 16.1093 14.2688 16.1093 12C16.1093 9.73125 14.2686 7.89062 11.9999 7.89062ZM11.9999 14.6656C10.528 14.6656 9.33425 13.4719 9.33425 12C9.33425 10.5281 10.528 9.33437 11.9999 9.33437C13.4718 9.33437 14.6655 10.5281 14.6655 12C14.6655 13.4719 13.4718 14.6656 11.9999 14.6656Z" fill="white"/>
<path d="M17.2311 7.72805C17.2311 8.2593 16.7999 8.68743 16.2718 8.68743C15.7405 8.68743 15.3124 8.25618 15.3124 7.72805C15.3124 7.1968 15.7436 6.76868 16.2718 6.76868C16.7999 6.76868 17.2311 7.19993 17.2311 7.72805Z" fill="white"/>
</g>
<defs>
<clipPath id="clip0_1607_6129">
<rect width="16" height="16" fill="white" transform="translate(3.99988 4)"/>
</clipPath>
</defs>
</svg>
